<?xml version="1.0" encoding="UTF-8"?>
<!-- Generator: visioncortex VTracer 0.6.12 -->
<svg version="1.1" xmlns="http://www.w3.org/2000/svg" width="2790" height="675">
<path d="M0 0 C0.5387 0.0025 0.5387 0.0025 3.2651 0.0149 C20.0202 0.2571 35.716 3.2024 50.6055 11.2148 C54.6798 13.1326 58.96 14.5687 63.2163 16.031 C67.4702 17.5495 70.494 19.2994 73.9375 22.3125 C75.3611 23.3118 76.7983 24.292 78.25 25.25 C79.035 25.7721 79.8201 26.2941 80.6289 26.832 C82.0109 27.7183 83.4103 28.5795 84.8398 29.3867 C90.9272 32.8487 95.7432 37.581 100.7891 42.375 C102.8599 44.3379 104.9748 46.2046 107.1797 48.0156 C109.9375 50.3125 109.9375 50.3125 112.4375 53.0625 C115.4199 55.7466 116.9245 56.4797 120.9375 56.3125 C122.6669 54.7111 124.3213 53.0281 125.9375 51.3125 C155.5032 21.7849 194.0624 0.4142 236.5625 0.0625 C237.5239 0.053 238.4853 0.0435 239.4758 0.0337 C239.9297 0.0359 239.9297 0.0359 242.2266 0.0469 C243.0382 0.0491 243.8498 0.0514 244.686 0.0537 C247.2034 0.3431 248.8102 0.9446 250.9375 2.3125 C251.9587 5.0842 252.1837 6.6154 251.1953 9.4141 C249.9375 11.3125 249.9375 11.3125 248.1875 12 C247.8162 12.0516 247.8162 12.0516 245.9375 12.3125 C245.4928 12.3866 245.4928 12.3866 243.2422 12.7617 C242.1516 12.9435 241.0611 13.1252 239.9375 13.3125 C216.7997 17.7305 194.9169 26.9478 179.5156 45.5156 C177.9375 47.3125 177.9375 47.3125 174.9375 49.75 C162.7915 60.1247 153.5296 77.3814 147.8398 92.0742 C146.7809 94.701 145.6279 97.0341 143.9375 99.3125 C141.1402 100.2449 139.3528 100.4585 136.4536 100.5054 C135.549 100.5214 134.6444 100.5375 133.7124 100.554 C129.5858 100.5986 125.4593 100.6395 121.3325 100.6626 C119.156 100.6792 116.9795 100.7065 114.8032 100.7446 C111.6628 100.7994 108.5236 100.8213 105.3828 100.8359 C104.4118 100.8586 103.4409 100.8813 102.4405 100.9046 C97.8139 100.8902 95.6548 100.8581 91.8796 97.9868 C89.6128 94.8653 88.4011 91.952 87.125 88.3125 C82.1489 75.0228 73.8577 64.1828 64.9375 53.3125 C64.4958 52.7671 64.0542 52.2218 63.5991 51.6599 C60.663 48.0691 57.5365 45.2367 53.9375 42.3125 C52.2708 40.6458 50.6042 38.9792 48.9375 37.3125 C32.9683 21.4213 10.7203 14.8616 -11.0586 11.9023 C-13.0625 11.3125 -13.0625 11.3125 -15.0625 8.3125 C-14.875 5.25 -14.875 5.25 -14.0625 2.3125 C-9.5758 -0.6786 -5.2831 -0.028 0 0 Z " fill="#000000" transform="translate(2458.0625,78.6875)"/>
<path d="M0 0 C1.0584 -0.0064 2.1168 -0.0128 3.2072 -0.0193 C3.7817 -0.0199 3.7817 -0.0199 6.6887 -0.0227 C7.8679 -0.026 9.047 -0.0294 10.2619 -0.0328 C12.7628 -0.0379 15.2637 -0.0402 17.7646 -0.04 C21.5813 -0.0422 25.3976 -0.0603 29.2141 -0.0793 C31.6431 -0.0823 34.0722 -0.0843 36.5012 -0.0852 C37.64 -0.0924 38.7788 -0.0996 39.9521 -0.107 C45.6821 -0.0906 50.4481 0.2943 55.927 2.1453 C58.2603 2.6061 60.5978 3.0455 62.9387 3.4656 C70.7853 4.9622 78.2099 7.3543 85.7395 10.0203 C86.9712 10.4418 88.2029 10.8633 89.4719 11.2976 C110.6472 18.6835 110.6472 18.6835 114.927 26.1453 C115.4616 29.1221 115.7084 31.5475 115.7278 34.5242 C115.7516 35.3438 115.7754 36.1635 115.7999 37.0079 C115.8695 39.7206 115.9006 42.4319 115.927 45.1453 C115.9585 47.0761 115.9903 49.0069 116.0222 50.9377 C116.0918 55.9628 116.1127 60.9867 116.1123 66.0122 C116.1145 69.1316 116.1329 72.2506 116.1516 75.3699 C116.1545 77.3666 116.1565 79.3634 116.1575 81.3601 C116.1647 82.2861 116.1718 83.212 116.1792 84.166 C116.1762 85.0253 116.1731 85.8847 116.1699 86.77 C116.1713 87.521 116.1728 88.272 116.1742 89.0458 C115.8927 91.4363 115.1125 93.067 113.927 95.1453 C112.0325 94.864 112.0325 94.864 109.927 94.1453 C108.9852 92.1919 108.0694 90.2232 107.259 88.2117 C105.524 84.2176 103.486 80.4176 101.427 76.5828 C100.666 75.1651 99.9056 73.7471 99.1458 72.3289 C98.9592 71.9813 98.9592 71.9813 98.0151 70.2222 C96.961 68.2102 95.9709 66.176 94.9856 64.1296 C84.041 42.1407 66.1166 25.2266 42.8254 17.3328 C21.6704 10.6425 -3.034 12.9386 -22.8308 22.7156 C-36.1665 29.9268 -47.0862 42.9349 -51.6863 57.312 C-55.0101 69.1562 -54.209 83.1898 -48.491 94.1882 C-45.9693 98.2591 -43.2312 102.0564 -40.1355 105.7078 C-38.073 108.1453 -38.073 108.1453 -38.073 110.1453 C-36.7426 110.8178 -35.4087 111.4833 -34.073 112.1453 C-32.844 113.3113 -31.6591 114.5249 -30.5105 115.7703 C-17.1643 129.3863 1.3311 138.1226 17.927 147.1453 C18.6956 147.5645 19.4642 147.9838 20.2561 148.4158 C29.9056 153.6582 39.6538 158.4598 49.7053 162.8828 C56.1973 165.7587 62.4436 168.9603 68.6653 172.3757 C71.4915 173.909 74.3374 175.3264 77.2395 176.7078 C81.4369 178.7927 85.1764 181.2515 88.9622 184.0085 C91.2796 185.6787 93.6129 187.2872 95.9856 188.8757 C108.7735 197.5137 118.1781 206.5796 125.927 220.1453 C126.3769 220.9097 126.8268 221.6741 127.2903 222.4617 C130.1448 227.6846 131.9793 233.0896 133.677 238.7703 C133.8879 239.4749 134.0988 240.1795 134.3162 240.9055 C139.3564 258.6147 137.5452 277.2497 131.6145 294.4578 C131.3308 295.2817 131.0472 296.1057 130.7549 296.9546 C126.9241 307.5443 121.2379 315.6439 113.927 324.1453 C113.2258 325.0051 112.5245 325.8649 111.802 326.7507 C97.729 343.4365 76.6719 352.2503 56.2629 358.4226 C54.2918 359.0324 52.3408 359.7068 50.3958 360.3953 C30.7363 367.0133 7.6703 365.7329 -12.749 364.4556 C-14.7686 364.3323 -16.7887 364.226 -18.8093 364.1199 C-25.5072 363.7072 -31.5575 363.0159 -37.9199 360.8564 C-41.0817 359.8121 -44.2923 359.31 -47.573 358.7703 C-61.9366 356.226 -75.7658 352.1296 -89.073 346.1453 C-89.5506 345.9725 -89.5506 345.9725 -91.9675 345.0984 C-94.8721 343.7627 -96.2619 342.793 -98.073 340.1453 C-99.1984 334.9177 -99.1232 329.8176 -99.0725 324.4875 C-99.0731 320.5809 -99.191 316.6858 -99.3269 312.782 C-99.7637 300.0533 -100.156 287.3198 -100.198 274.5828 C-100.2026 273.8287 -100.2072 273.0746 -100.2119 272.2976 C-100.1972 267.3936 -100.1972 267.3936 -99.073 265.1453 C-97.323 265.2039 -97.323 265.2039 -95.073 266.1453 C-93.5548 268.4967 -92.3004 270.7123 -91.073 273.2078 C-90.7227 273.893 -90.3724 274.5782 -90.0115 275.2842 C-89.0191 277.2317 -88.0441 279.1871 -87.073 281.1453 C-86.6553 281.9677 -86.2377 282.7901 -85.8074 283.6375 C-84.5729 286.077 -83.3552 288.5207 -82.2292 291.0125 C-79.3025 297.2948 -75.234 302.6295 -71.073 308.1453 C-70.5316 308.8826 -69.9902 309.62 -69.4324 310.3796 C-68.0028 312.3209 -66.5474 314.2379 -65.073 316.1453 C-64.6386 316.7163 -64.2042 317.2874 -63.7566 317.8757 C-57.3332 325.8729 -48.8891 332.0243 -40.073 337.1453 C-39.1152 337.7614 -38.1575 338.3776 -37.1707 339.0125 C-30.2924 343.2662 -23.577 346.2466 -15.823 348.5828 C-15.4155 348.7062 -15.4155 348.7062 -13.3533 349.3306 C9.6722 355.8532 34.9071 353.1849 55.6614 341.6218 C70.7782 331.8897 84.2996 316.8543 88.177 299.0828 C90.7179 282.7054 89.2422 265.3238 79.927 251.1453 C77.868 248.653 75.7471 246.2825 73.5012 243.9578 C71.927 242.1453 71.927 242.1453 71.927 240.1453 C70.6136 239.4401 69.2762 238.7792 67.927 238.1453 C66.826 237.314 65.7437 236.4576 64.677 235.5828 C59.5477 231.667 53.9393 228.6962 48.3059 225.5828 C43.8037 223.0918 39.36 220.507 34.927 217.8953 C34.2458 217.4953 33.5646 217.0954 32.8628 216.6833 C29.476 214.6856 26.1343 212.6409 22.8254 210.5164 C19.5156 208.4374 16.1999 206.8854 12.552 205.4578 C5.8765 202.6913 -0.335 199.3556 -6.592 195.748 C-10.9466 193.2533 -15.3272 191.1019 -19.9326 189.1101 C-23.129 187.6692 -26.1013 185.967 -29.1355 184.2078 C-29.7391 183.8579 -30.3427 183.508 -30.9646 183.1475 C-38.1325 178.9746 -44.9991 174.561 -51.7644 169.7625 C-53.5228 168.5307 -55.3212 167.3556 -57.1355 166.2078 C-65.5079 160.3293 -71.7617 153.1271 -78.073 145.1453 C-78.9392 144.1759 -79.8055 143.2065 -80.698 142.2078 C-92.2043 127.3707 -96.4393 111.5075 -97.0056 93.1184 C-97.0644 91.3957 -97.163 89.6744 -97.2683 87.9539 C-98.0763 68.1587 -88.8822 49.5778 -76.0105 35.0828 C-58.4702 16.178 -33.7051 6.6194 -8.8679 1.5706 C-2.2787 0.0093 -2.2787 0.0093 0 0 Z " fill="#000000" transform="translate(179.072998046875,226.854736328125)"/>
<path d="M0 0 C0.8116 -0.014 1.6233 -0.028 2.4595 -0.0425 C8.0802 0.0043 8.0802 0.0043 10.262 1.6812 C11.5625 3.375 11.5625 3.375 12.1875 6.875 C11.9812 8.03 11.775 9.185 11.5625 10.375 C6.1942 13.3312 0.8067 14.1308 -5.1875 15.0625 C-23.7279 18.2966 -40.1841 26.1481 -53.9141 39.125 C-55.4375 40.375 -55.4375 40.375 -57.4375 40.375 C-57.685 40.9319 -57.9325 41.4887 -58.1875 42.0625 C-59.6549 44.7772 -61.5989 46.1388 -63.9922 48.0234 C-66.1931 50.0816 -67.1465 52.6807 -68.4375 55.375 C-70.0609 57.0838 -71.7307 58.7495 -73.4375 60.375 C-80.9237 68.6492 -86.109 78.1505 -90.4375 88.375 C-90.8358 89.24 -91.2341 90.1049 -91.6445 90.9961 C-101.8787 113.9011 -107.1944 140.3639 -107.4375 165.375 C-107.447 165.9005 -107.447 165.9005 -107.4951 168.5601 C-107.9406 194.3749 -106.796 219.467 -101.0327 244.6904 C-100.5139 247.0305 -100.0608 249.3666 -99.6445 251.7266 C-97.8725 261.2054 -94.3834 269.9029 -90.625 278.75 C-90.1273 279.9273 -89.6297 281.1046 -89.1169 282.3176 C-84.9675 291.8048 -80.0247 300.5857 -73.375 308.5625 C-70.9523 311.5014 -68.6413 314.4568 -66.4375 317.5625 C-52.9906 335.5517 -27.5183 348.4594 -5.707 351.9766 C2.112 352.8476 10.0393 352.5239 17.8921 352.4121 C19.5225 352.3895 21.1531 352.3734 22.7837 352.3691 C33.4929 352.3165 41.8569 349.4649 51.5625 345.375 C53.312 344.7278 55.0619 344.0817 56.8125 343.4375 C65.6796 339.8338 73.5358 334.8304 80.5625 328.375 C81.3875 327.7563 82.2125 327.1375 83.0625 326.5 C89.1561 321.3204 93.8541 314.791 98.5625 308.375 C99.5621 307.0622 100.5621 305.7497 101.5625 304.4375 C102.5646 303.0849 103.5645 301.7307 104.5625 300.375 C104.8158 300.0431 104.8158 300.0431 106.0977 298.3633 C110.0071 292.954 112.1172 287.4695 114.2148 281.1562 C115.3225 277.9112 116.6875 274.8548 118.1514 271.7571 C129.1253 248.336 132.1434 220.0133 132.5625 194.375 C132.5883 193.1283 132.6141 191.8816 132.6406 190.5972 C133.1636 163.5258 132.2534 136.2966 123.5625 110.375 C123.25 107.125 123.25 107.125 123.5625 104.375 C126.6488 102.3174 127.2988 102.1237 130.7869 102.1162 C131.6346 102.1099 132.4824 102.1036 133.3558 102.0971 C134.2684 102.1012 135.1809 102.1052 136.1211 102.1094 C137.0618 102.1075 138.0025 102.1055 138.9717 102.1036 C140.9614 102.1022 142.951 102.1059 144.9407 102.1143 C147.9847 102.1249 151.0282 102.1144 154.0723 102.1016 C156.0052 102.1029 157.9382 102.1054 159.8711 102.1094 C160.7816 102.1053 161.6921 102.1013 162.6302 102.0971 C163.4811 102.1034 164.332 102.1097 165.2087 102.1162 C165.9547 102.1178 166.7007 102.1194 167.4692 102.121 C169.924 102.4189 171.4866 103.0345 173.5625 104.375 C174.7364 106.7558 175.6458 108.9447 176.5 111.4375 C176.6262 111.7897 176.6262 111.7897 177.2646 113.5723 C180.0193 121.4042 182.3891 129.3638 184.5625 137.375 C184.7422 138.0301 184.9218 138.6852 185.1069 139.3601 C194.4358 174.7569 189.3031 216.1068 179 250.5625 C178.8536 251.0529 178.8536 251.0529 178.1125 253.5347 C176.6134 258.4151 174.9289 262.8368 172.5625 267.375 C172.0981 268.6322 171.6473 269.8944 171.207 271.1602 C169.4275 276.0271 166.8821 280.3635 164.25 284.8125 C163.7892 285.6072 163.3283 286.4019 162.8535 287.2207 C158.4835 294.6905 154.057 302.0919 148.125 308.4375 C145.3717 311.4115 142.6753 314.4022 140.0625 317.5 C136.2819 321.8384 132.1353 325.8732 127.5625 329.375 C126.9025 329.375 126.2425 329.375 125.5625 329.375 C125.2936 329.9651 125.0246 330.5551 124.7476 331.1631 C122.2697 335.788 116.5799 338.0234 112.1875 340.625 C111.0593 341.2952 109.9312 341.9655 108.7688 342.656 C93.4429 351.6291 77.3478 357.0865 60.3081 361.8376 C58.5625 362.375 58.5625 362.375 56.5625 363.375 C53.7498 363.7443 50.9453 364.0769 48.125 364.375 C39.9608 365.2422 39.9608 365.2422 36.5625 366.375 C7.2106 369.2146 -22.6067 367.3005 -50.4375 357.375 C-51.1371 357.1338 -51.8368 356.8926 -52.5576 356.644 C-66.6529 351.7819 -79.8037 345.2916 -92.4375 337.375 C-93.3308 336.8671 -94.2241 336.3592 -95.1445 335.8359 C-97.4375 334.375 -97.4375 334.375 -98.4375 332.3125 C-99.4375 330.375 -99.4375 330.375 -101.5625 329.5625 C-108.8663 326.5457 -113.7512 319.9964 -118.4453 313.8867 C-120.2952 311.5544 -122.2492 309.4545 -124.3125 307.3125 C-129.6657 301.3714 -133.3482 294.3919 -137.2456 287.4561 C-138.2999 285.6152 -139.4134 283.8084 -140.5352 282.0078 C-158.1671 253.334 -163.6482 218.0958 -163.625 184.9375 C-163.6242 183.7219 -163.6234 182.5063 -163.6226 181.2539 C-163.5508 170.5347 -162.786 160.0035 -161.4375 149.375 C-161.3769 148.8439 -161.3769 148.8439 -161.0703 146.1562 C-159.0632 131.5737 -154.1379 116.9038 -148.4375 103.375 C-148.123 102.5951 -147.8084 101.8152 -147.4844 101.0117 C-144.7371 94.4577 -141.13 88.434 -137.4375 82.375 C-137.1023 81.8162 -137.1023 81.8162 -135.4062 78.9883 C-130.2589 70.5828 -124.2984 63.2071 -117.7361 55.8669 C-116.5314 54.4828 -115.395 53.04 -114.2656 51.5938 C-112.4375 49.375 -112.4375 49.375 -109.5 47.4375 C-106.6461 45.5155 -104.9512 43.639 -102.8555 40.9531 C-100.631 38.4774 -97.9681 36.6736 -95.2695 34.7461 C-93.4375 33.375 -93.4375 33.375 -91.5625 31.3125 C-88.7738 28.7698 -85.7149 27.4647 -82.3203 25.8516 C-79.1942 24.2504 -76.3206 22.412 -73.375 20.5 C-52.0254 7.2468 -25.025 0.2997 0 0 Z " fill="#000000" transform="translate(2336.4375,226.625)"/>
<path d="M0 0 C0.7548 -0.0066 1.5096 -0.0131 2.2872 -0.0199 C4.784 -0.0396 7.2807 -0.0513 9.7776 -0.0613 C10.6304 -0.0654 11.4832 -0.0694 12.3618 -0.0736 C16.8727 -0.0945 21.3836 -0.1088 25.8945 -0.1182 C30.5565 -0.1292 35.218 -0.1637 39.8798 -0.2033 C43.4632 -0.2295 47.0464 -0.2379 50.6299 -0.2414 C52.3487 -0.2463 54.0675 -0.258 55.7862 -0.2765 C58.1899 -0.3008 60.5923 -0.2999 62.9961 -0.293 C63.7064 -0.3058 64.4166 -0.3186 65.1484 -0.3318 C68.6577 -0.2947 70.2808 -0.0544 73.0357 2.2064 C73.5396 2.8567 74.0435 3.507 74.5627 4.177 C72.1309 7.1647 69.7599 9.9847 67.0002 12.677 C56.58 23.3644 56.4108 36.7718 56.4223 50.8844 C56.4193 52.0351 56.4164 53.1859 56.4133 54.3716 C56.4047 58.2127 56.4031 62.0539 56.4016 65.895 C56.3975 68.6552 56.392 71.4153 56.3866 74.1755 C56.373 81.6631 56.367 89.1507 56.3626 96.6384 C56.3598 101.3186 56.3555 105.9988 56.3511 110.679 C56.3389 123.6524 56.3286 136.6257 56.3252 149.5991 C56.325 150.4282 56.3247 151.2572 56.3245 152.1114 C56.3243 152.9423 56.3241 153.7732 56.3238 154.6293 C56.3234 156.313 56.323 157.9966 56.3225 159.6802 C56.3223 160.5153 56.3221 161.3504 56.3218 162.2108 C56.3179 175.7431 56.3004 189.2753 56.2772 202.8075 C56.2534 216.7206 56.241 230.6336 56.2398 244.5467 C56.2389 252.3505 56.2332 260.1543 56.215 267.9581 C56.1995 274.6022 56.1945 281.2463 56.2027 287.8905 C56.2066 291.2764 56.2041 294.6619 56.1917 298.0478 C56.1789 301.7283 56.1848 305.4082 56.1953 309.0887 C56.1872 310.1449 56.1791 311.201 56.1708 312.2892 C56.2457 323.6612 58.4646 336.8635 66.6643 345.3528 C68.5811 347.0427 70.5184 348.645 72.5627 350.177 C71.8752 352.1145 71.8752 352.1145 70.5627 354.177 C66.5485 355.343 62.6066 355.3038 58.4492 355.3064 C57.7527 355.3081 57.0561 355.3099 56.3384 355.3117 C54.0473 355.3161 51.7562 355.3132 49.4651 355.3098 C47.8676 355.3105 46.27 355.3115 44.6725 355.3127 C41.3295 355.3142 37.9865 355.3121 34.6436 355.3074 C30.3607 355.3017 26.0779 355.305 21.7951 355.3109 C18.4983 355.3146 15.2015 355.3134 11.9047 355.3108 C10.3254 355.3102 8.7462 355.311 7.1669 355.3133 C4.9602 355.3158 2.7536 355.312 0.5469 355.3064 C-0.7082 355.3056 -1.9633 355.3048 -3.2565 355.304 C-5.8601 355.2 -7.969 354.9536 -10.4373 354.177 C-10.6638 351.8684 -10.6638 351.8684 -10.4373 349.177 C-8.8982 347.5793 -8.8982 347.5793 -6.8123 346.1145 C1.3703 339.4843 5.0487 328.601 6.1875 318.3665 C8.058 297.5884 7.8408 276.7744 7.7985 255.9332 C7.7895 250.5668 7.7914 245.2003 7.7918 239.8338 C7.7909 230.8001 7.7823 221.7664 7.7686 212.7327 C7.7547 203.579 7.7475 194.4254 7.748 185.2717 C7.7518 100.0937 7.7518 100.0937 7.2865 68.2828 C7.2554 66.1157 7.2283 63.9485 7.2059 61.7812 C6.7924 24.4354 6.7924 24.4354 -3.9373 12.3645 C-4.3498 12.0036 -4.3498 12.0036 -6.4373 10.177 C-9.3123 7.6145 -9.3123 7.6145 -11.4373 5.177 C-11.4373 2.927 -11.4373 2.927 -10.4373 1.177 C-6.8983 -0.0027 -3.6835 0.0139 0 0 Z " fill="#000000" transform="translate(414.437255859375,231.822998046875)"/>
<path d="M0 0 C0.3887 -0.0009 0.3887 -0.0009 2.3557 -0.0053 C4.9324 -0.0097 7.5092 -0.0068 10.0859 -0.0034 C11.8719 -0.0041 13.6579 -0.0051 15.4438 -0.0063 C19.1898 -0.0078 22.9357 -0.0056 26.6816 -0.001 C31.4905 0.0047 36.2993 0.0014 41.1082 -0.0045 C44.797 -0.0082 48.4857 -0.007 52.1745 -0.0044 C53.948 -0.0038 55.7215 -0.0046 57.4949 -0.0069 C59.9706 -0.0094 62.4462 -0.0056 64.9219 0 C65.6596 -0.002 66.3973 -0.004 67.1574 -0.0061 C72.2324 0.0151 72.2324 0.0151 74.4609 1.1294 C74.8086 3.5083 74.8086 3.5083 74.4609 6.1294 C72.957 7.6567 72.957 7.6567 70.8984 9.0669 C63.2189 15.2869 59.2356 25.6022 57.4609 35.1294 C57.0952 38.765 56.9594 42.3951 56.847 46.0464 C56.8095 47.0947 56.7719 48.143 56.7333 49.2231 C56.3452 60.9663 56.2976 72.709 56.2839 84.4575 C56.2776 86.8883 56.271 89.319 56.264 91.7498 C56.2451 98.9479 56.2342 106.146 56.2253 113.3442 C56.2218 116.068 56.2176 118.7918 56.2135 121.5156 C56.195 133.5665 56.1793 145.6174 56.1716 157.6683 C56.1696 160.5939 56.1677 163.5196 56.1658 166.4453 C56.1655 166.8088 56.1655 166.8088 56.1643 168.648 C56.156 180.4533 56.1306 192.2585 56.0982 204.0637 C56.065 216.2461 56.0471 228.4284 56.0439 240.6109 C56.0418 247.4265 56.0332 254.2419 56.0075 261.0575 C55.9841 267.46 55.98 273.8622 55.9902 280.2648 C55.9907 282.6027 55.9845 284.9407 55.9707 287.2786 C55.7974 318.3921 55.7974 318.3921 64.4609 330.1294 C65.2034 330.8719 65.9459 331.6144 66.7109 332.3794 C67.2884 332.9569 67.8659 333.5344 68.4609 334.1294 C68.4609 334.7894 68.4609 335.4494 68.4609 336.1294 C83.2178 343.0546 101.5157 342.5866 117.3916 342.4656 C120.7196 342.4418 124.0469 342.4451 127.375 342.4517 C137.0471 342.4381 146.509 342.4214 156.0356 340.5925 C158.3964 340.1417 160.6897 339.9111 163.0859 339.7544 C170.4393 338.9946 177.2559 336.0374 183.4609 332.1294 C184.1673 331.6924 184.8737 331.2554 185.6016 330.8052 C196.1766 323.9705 204.181 316.051 210.4609 305.1294 C210.8327 304.5888 211.2044 304.0482 211.5874 303.4912 C215.1387 298.2276 216.9329 293.1177 218.5234 287.0044 C218.7753 286.0895 219.0271 285.1746 219.2866 284.2319 C220.4324 280.0603 221.5284 275.8779 222.5898 271.6841 C222.7542 271.0563 222.7542 271.0563 223.5859 267.8794 C223.8566 266.7811 224.1273 265.6828 224.4062 264.5513 C225.4609 262.1294 225.4609 262.1294 227.5156 261.2075 C228.1576 261.1817 228.7995 261.156 229.4609 261.1294 C232.8319 264.5003 231.6212 272.8183 231.6379 277.4038 C231.6445 278.1998 231.6511 278.9958 231.6579 279.8159 C231.6774 282.4256 231.6892 285.0353 231.6992 287.645 C231.7033 288.5395 231.7074 289.434 231.7116 290.3556 C231.7323 295.0794 231.7467 299.8031 231.7561 304.5269 C231.7672 309.4085 231.8017 314.2898 231.8413 319.1713 C231.8674 322.927 231.8758 326.6826 231.8794 330.4384 C231.8843 332.239 231.8959 334.0396 231.9144 335.8401 C231.9387 338.3513 231.9379 340.8613 231.9309 343.3726 C231.9373 343.745 231.9373 343.745 231.9697 345.6301 C231.9193 350.5965 231.9193 350.5965 230.0089 352.8174 C226.1407 354.8092 222.4986 354.5619 218.2059 354.5483 C217.2587 354.5571 216.3114 354.5658 215.3354 354.5749 C212.1533 354.6006 208.9715 354.6049 205.7893 354.6094 C203.5111 354.6233 201.233 354.6385 198.9548 354.6549 C192.7607 354.6953 186.5667 354.7169 180.3725 354.7343 C173.8965 354.7548 167.4206 354.7898 160.9447 354.8225 C149.3702 354.8784 137.7957 354.9192 126.2211 354.9541 C115.7271 354.9861 105.2333 355.0339 94.7395 355.0933 C82.5545 355.1621 70.3695 355.2208 58.1843 355.2646 C51.7338 355.2878 45.2833 355.3152 38.8328 355.3531 C32.768 355.3881 26.7033 355.4084 20.6384 355.4172 C18.4103 355.4229 16.1823 355.4337 13.9542 355.45 C10.917 355.4714 7.8802 355.4743 4.8429 355.4724 C3.9575 355.483 3.0721 355.4935 2.1599 355.5045 C-2.594 355.4792 -5.6285 355.1509 -9.5391 352.1294 C-8.3648 348.0194 -6.6534 346.1032 -3.1719 343.6333 C1.1781 339.6267 3.1215 334.8512 4.6484 329.2544 C4.972 328.102 5.2955 326.9496 5.6289 325.7622 C7.3633 318.1897 7.6066 310.8791 7.5947 303.1454 C7.5969 302.0603 7.5992 300.9751 7.6015 299.8571 C7.6078 296.2318 7.607 292.6065 7.6062 288.9812 C7.6092 286.3771 7.6126 283.773 7.6164 281.1689 C7.6247 274.8342 7.6274 268.4996 7.628 262.165 C7.6285 257.0099 7.6305 251.8548 7.6337 246.6997 C7.6425 232.058 7.6471 217.4163 7.6464 202.7745 C7.6463 202.3803 7.6463 202.3803 7.6462 200.385 C7.6462 199.5955 7.6462 198.806 7.6461 197.9926 C7.6457 185.217 7.6553 172.4414 7.6694 159.6659 C7.6838 146.5224 7.6906 133.3789 7.6898 120.2353 C7.6895 112.8667 7.6921 105.4982 7.703 98.1296 C7.7131 91.1914 7.7127 84.2533 7.7054 77.3151 C7.7044 74.7792 7.7067 72.2433 7.7128 69.7075 C7.8154 23.9077 7.8154 23.9077 -3.8555 11.7349 C-5.2066 10.4464 -6.5871 9.1889 -7.9766 7.9419 C-9.5391 6.1294 -9.5391 6.1294 -9.9141 3.4419 C-9.7903 2.6788 -9.6666 1.9156 -9.5391 1.1294 C-6.4975 -0.3914 -3.3362 -0.0092 0 0 Z " fill="#000000" transform="translate(613.5390625,231.87060546875)"/>
<path d="M0 0 C0.7354 -0.0034 1.4709 -0.0067 2.2286 -0.0102 C4.655 -0.0197 7.0814 -0.0216 9.5078 -0.0227 C11.1965 -0.0259 12.8851 -0.0293 14.5737 -0.0328 C18.111 -0.0388 21.6483 -0.0406 25.1855 -0.04 C29.7184 -0.0399 34.2512 -0.0536 38.784 -0.0708 C42.2704 -0.0819 45.7568 -0.084 49.2432 -0.0834 C50.9146 -0.0846 52.5859 -0.089 54.2573 -0.0968 C56.5935 -0.1066 58.9294 -0.1037 61.2656 -0.0977 C61.9556 -0.1033 62.6456 -0.1089 63.3565 -0.1147 C66.894 -0.0915 69.724 -0.0028 72.6328 2.1453 C72.613 5.2136 72.1171 6.652 69.9609 8.8484 C69.2752 9.3589 68.5894 9.8693 67.8828 10.3953 C60.6192 16.3702 57.0979 24.7607 55.8383 33.9812 C55.406 38.5338 55.4887 43.1055 55.4924 47.6746 C55.4894 48.8304 55.4864 49.9862 55.4834 51.1771 C55.4762 54.3723 55.4735 57.5675 55.4728 60.7627 C55.4709 64.2141 55.4634 67.6656 55.4566 71.117 C55.4431 78.6586 55.437 86.2002 55.4326 93.7418 C55.4299 98.4559 55.4256 103.1699 55.4211 107.884 C55.4089 120.9499 55.3986 134.0159 55.3952 147.0818 C55.395 147.9174 55.3948 148.7529 55.3946 149.6137 C55.3944 150.4512 55.3941 151.2887 55.3939 152.1515 C55.3935 153.8484 55.393 155.5453 55.3926 157.2422 C55.3924 158.0839 55.3921 158.9256 55.3919 159.7928 C55.388 173.4208 55.3705 187.0488 55.3472 200.6768 C55.3235 214.687 55.311 228.6972 55.3099 242.7074 C55.309 250.5661 55.3033 258.4247 55.2851 266.2834 C55.2696 272.9773 55.2646 279.6711 55.2728 286.3651 C55.2767 289.7755 55.2742 293.1856 55.2617 296.596 C55.1376 332.6591 55.1376 332.6591 64.6328 344.1453 C66.5781 345.7273 66.5781 345.7273 68.5078 347.0203 C69.5391 347.7215 70.5703 348.4228 71.6328 349.1453 C71.6328 350.4653 71.6328 351.7853 71.6328 353.1453 C68.0975 354.3237 64.8614 354.3364 61.1797 354.3823 C60.4233 354.3954 59.6669 354.4085 58.8876 354.4221 C56.386 354.4639 53.8845 354.4984 51.3828 354.532 C49.6455 354.5576 47.9082 354.5834 46.1709 354.6093 C42.5293 354.6623 38.8877 354.7112 35.2461 354.7578 C30.5751 354.8182 25.9044 354.8925 21.2336 354.9702 C17.6461 355.0277 14.0585 355.076 10.4708 355.1218 C8.7484 355.1452 7.0259 355.172 5.3036 355.2021 C2.8977 355.2432 0.492 355.2714 -1.9141 355.2964 C-2.271 355.3039 -2.271 355.3039 -4.0773 355.3418 C-7.7568 355.3654 -9.213 355.2481 -12.3672 353.1453 C-12.2248 350.6704 -11.7965 349.5332 -9.9492 347.864 C-9.3653 347.4618 -8.7813 347.0596 -8.1797 346.6453 C0.0268 339.9186 4.0309 327.3569 5.6328 317.1453 C6.3841 308.3405 6.1908 299.4735 6.1663 290.645 C6.1733 287.9677 6.1819 285.2904 6.1924 282.6131 C6.2139 276.1214 6.2139 269.63 6.2057 263.1384 C6.1994 257.8538 6.2006 252.5692 6.207 247.2846 C6.2079 246.5294 6.2088 245.7741 6.2097 244.996 C6.2116 243.461 6.2135 241.9261 6.2153 240.3912 C6.2319 226.0269 6.2232 211.6628 6.2063 197.2985 C6.1917 184.2026 6.2063 171.107 6.2351 158.0111 C6.2646 144.5193 6.2754 131.0276 6.2659 117.5358 C6.2649 116.0047 6.2639 114.4737 6.263 112.9426 C6.2627 112.5661 6.2627 112.5661 6.2615 110.6606 C6.2594 105.3959 6.2691 100.1313 6.2837 94.8666 C6.3014 88.4306 6.3009 81.9949 6.2784 75.5589 C6.2674 72.2852 6.2666 69.0121 6.2827 65.7384 C6.3636 47.8669 6.0633 29.8498 -3.3672 14.1453 C-3.3672 13.4853 -3.3672 12.8253 -3.3672 12.1453 C-4.1097 11.8565 -4.8522 11.5678 -5.6172 11.2703 C-8.7421 9.9919 -10.354 8.8553 -12.3672 6.1453 C-12.3672 3.4578 -12.3672 3.4578 -11.3672 1.1453 C-7.7523 -0.2886 -3.8313 -0.0025 0 0 Z " fill="#000000" transform="translate(2027.3671875,231.854736328125)"/>
<path d="M0 0 C0.4653 -0.0015 0.4653 -0.0015 2.8201 -0.009 C5.9578 -0.0177 9.0954 -0.0192 12.233 -0.0207 C14.4748 -0.0253 16.7165 -0.0303 18.9582 -0.0357 C25.0614 -0.0489 31.1645 -0.0553 37.2677 -0.0597 C41.0766 -0.0627 44.8855 -0.0668 48.6944 -0.0713 C59.2347 -0.0834 69.775 -0.0937 80.3153 -0.0971 C80.9901 -0.0973 81.6648 -0.0976 82.3601 -0.0978 C83.0365 -0.098 83.7129 -0.0982 84.4099 -0.0985 C85.7806 -0.0989 87.1514 -0.0993 88.5221 -0.0998 C89.2021 -0.1 89.882 -0.1002 90.5825 -0.1005 C101.6058 -0.1044 112.6291 -0.1219 123.6524 -0.1452 C134.9627 -0.1688 146.2731 -0.1811 157.5835 -0.1825 C163.9368 -0.1835 170.2899 -0.1895 176.6432 -0.2073 C182.6161 -0.2237 188.5888 -0.226 194.5617 -0.2172 C196.7583 -0.2164 198.955 -0.2208 201.1516 -0.2306 C204.1416 -0.2432 207.1309 -0.2375 210.1208 -0.2271 C210.9979 -0.2351 211.8749 -0.2432 212.7785 -0.2515 C218.6845 -0.2028 218.6845 -0.2028 220.8458 1.4854 C222.8313 4.0565 222.498 6.3031 222.4962 9.5079 C222.5025 10.8226 222.5087 12.1372 222.5151 13.4918 C222.5064 14.9281 222.4971 16.3643 222.4872 17.8006 C222.4867 19.2713 222.4872 20.7419 222.4887 22.2126 C222.4886 25.2935 222.4782 28.3742 222.4601 31.4551 C222.4374 35.4087 222.4369 39.362 222.4436 43.3156 C222.447 46.3516 222.4403 49.3875 222.4305 52.4235 C222.4266 53.8816 222.4255 55.3397 222.4271 56.7977 C222.4274 58.8327 222.4134 60.8676 222.3986 62.9024 C222.394 64.0614 222.3894 65.2204 222.3846 66.4145 C222.1239 69.1404 222.1239 69.1404 220.1239 71.1404 C218.1332 71.0137 218.1332 71.0137 216.1239 70.1404 C214.9389 68.4097 214.9389 68.4097 213.9755 66.1678 C213.6094 65.3499 213.2433 64.532 212.8661 63.6893 C212.4974 62.8275 212.1288 61.9658 211.7489 61.0779 C208.0705 52.5716 203.5899 45.7559 197.4364 38.8279 C196.8757 38.1924 196.3149 37.5569 195.7372 36.9022 C194.1239 35.1404 194.1239 35.1404 192.4169 33.535 C191.1239 32.1404 191.1239 32.1404 191.1239 30.1404 C190.4639 29.8929 189.8039 29.6454 189.1239 29.3904 C186.3369 28.2292 185.1353 27.3226 182.9364 25.3904 C168.5816 14.3689 143.1894 11.0482 125.5939 10.9952 C124.8887 10.9918 124.1836 10.9885 123.4571 10.985 C121.1546 10.9756 118.8522 10.9736 116.5497 10.9725 C114.9364 10.9693 113.3232 10.9659 111.7099 10.9624 C108.342 10.9564 104.974 10.9545 101.6061 10.9551 C97.2954 10.9552 92.9848 10.9415 88.6741 10.9244 C85.3481 10.9132 82.0221 10.9112 78.6961 10.9117 C77.1065 10.9106 75.5169 10.9062 73.9273 10.8984 C71.7067 10.8886 69.4864 10.8915 67.2658 10.8975 C66.0042 10.8961 64.7426 10.8947 63.4427 10.8932 C60.1761 11.1366 57.9977 11.5941 55.1239 13.1404 C52.8099 16.6115 52.8728 17.9293 52.8699 22.0237 C52.8643 23.252 52.8587 24.4803 52.8529 25.7457 C52.8567 27.1091 52.8608 28.4724 52.8651 29.8358 C52.8624 31.2697 52.8589 32.7037 52.8545 34.1377 C52.8454 38.0343 52.8489 41.9308 52.8553 45.8275 C52.8603 49.902 52.8556 53.9765 52.8525 58.0511 C52.8489 64.894 52.8537 71.7369 52.8632 78.5799 C52.8741 86.4955 52.8705 94.4111 52.8595 102.3267 C52.8505 109.1183 52.8492 115.9098 52.8544 122.7014 C52.8575 126.7597 52.8579 130.818 52.8513 134.8763 C52.8456 138.6914 52.8495 142.5063 52.8611 146.3214 C52.8638 147.7231 52.863 149.1247 52.8586 150.5264 C52.8531 152.4366 52.8612 154.3469 52.8699 156.2571 C52.8707 157.3271 52.8715 158.3971 52.8722 159.4995 C53.1239 162.1404 53.1239 162.1404 55.1239 165.1404 C78.3229 170.9328 119.2834 168.3312 140.245 156.9256 C143.9752 154.6125 147.2257 152.4515 150.1239 149.1404 C150.6279 148.5926 151.132 148.0447 151.6513 147.4803 C155.9173 142.3675 158.2798 136.5307 160.7294 130.41 C161.988 127.4591 163.4007 124.8397 165.1239 122.1404 C166.1139 122.4704 167.1039 122.8004 168.1239 123.1404 C170.2439 128.5282 170.3753 133.465 170.2592 139.1968 C170.2544 139.6363 170.2544 139.6363 170.2305 141.86 C170.197 144.7441 170.1488 147.6277 170.1005 150.5115 C170.0743 152.5193 170.049 154.5272 170.0246 156.535 C169.9582 161.804 169.8793 167.0728 169.7977 172.3417 C169.7166 177.7244 169.6473 183.1072 169.577 188.4901 C169.4376 199.0404 169.2849 209.5904 169.1239 220.1404 C167.4739 220.4704 165.8239 220.8004 164.1239 221.1404 C163.821 220.2832 163.5181 219.426 163.2059 218.5428 C160.8063 211.9935 158.399 206.637 154.1239 201.1404 C154.1239 200.4804 154.1239 199.8204 154.1239 199.1404 C153.8294 198.9986 153.8294 198.9986 152.3388 198.2811 C149.6432 196.8929 148.5198 195.2914 146.6864 192.8904 C136.5162 181.3679 121.598 180.2879 107.1239 179.1404 C104.1072 179.0174 101.148 179.0069 98.1317 179.1014 C94.3223 179.1509 90.5475 178.8893 86.7489 178.6404 C79.5436 178.2121 72.3412 177.9411 65.1239 177.8279 C64.1618 177.7983 63.1997 177.7686 62.2084 177.7381 C61.7613 177.7342 61.7613 177.7342 59.4989 177.7147 C58.7023 177.7001 57.9056 177.6855 57.0849 177.6705 C55.1239 178.1404 55.1239 178.1404 54.0177 179.8566 C53.0016 182.4531 52.8697 184.3676 52.8632 187.1521 C52.8561 188.1625 52.8491 189.1728 52.8418 190.2138 C52.8442 191.3166 52.8467 192.4195 52.8493 193.5557 C52.8467 194.1389 52.8467 194.1389 52.8338 197.0903 C52.8198 200.9574 52.8208 204.8242 52.8231 208.6912 C52.8208 210.7037 52.8173 212.7162 52.8137 214.7288 C52.8026 221.0666 52.8022 227.4044 52.8082 233.7422 C52.8143 240.2461 52.802 246.7498 52.7807 253.2537 C52.7629 258.8591 52.7571 264.4644 52.7603 270.0698 C52.7621 273.4076 52.7583 276.7451 52.7456 280.0828 C52.619 318.0548 52.619 318.0548 62.1239 329.1404 C70.3317 336.5162 81.801 340.1874 92.7108 340.3333 C93.811 340.3494 94.9111 340.3654 96.0446 340.382 C101.1415 340.4272 106.2383 340.468 111.3353 340.4905 C113.9926 340.5037 116.6479 340.534 119.3051 340.5726 C147.2063 340.975 175.9519 338.9617 198.2763 320.4959 C200.1239 319.1404 200.1239 319.1404 202.1239 319.1404 C202.3508 318.4598 202.5777 317.7792 202.8114 317.0779 C204.1278 314.1317 204.9703 313.2619 207.3114 311.2029 C215.5721 303.2159 219.1755 290.9565 222.6395 280.2742 C222.9064 279.4914 223.1732 278.7087 223.4481 277.9022 C223.6759 277.2005 223.9037 276.4989 224.1383 275.7759 C225.1239 274.1404 225.1239 274.1404 227.2287 273.4053 C227.5414 273.3616 227.5414 273.3616 229.1239 273.1404 C231.375 276.7454 231.3828 279.7591 231.3986 283.9568 C231.4037 284.6338 231.4088 285.3107 231.4141 286.0081 C231.4279 288.2398 231.427 290.4712 231.4247 292.7029 C231.4286 294.2571 231.4329 295.8112 231.4377 297.3653 C231.4451 300.6201 231.4449 303.8749 231.4396 307.1297 C231.4338 311.2995 231.4507 315.4688 231.4739 319.6386 C231.4887 322.8471 231.4895 326.0554 231.4864 329.2639 C231.4869 330.8013 231.4922 332.3387 231.5022 333.8761 C231.5146 336.0257 231.5078 338.1744 231.4962 340.324 C231.4969 341.5466 231.4975 342.7692 231.4981 344.0289 C231.0657 347.6246 230.8199 348.7373 228.1239 351.1404 C225.021 351.7574 221.9401 351.6705 218.7859 351.6349 C217.8177 351.6397 216.8494 351.6446 215.8518 351.6496 C212.5926 351.6609 209.3342 351.6435 206.0751 351.6263 C203.7446 351.6284 201.414 351.6323 199.0835 351.6378 C192.7427 351.6475 186.4021 351.6321 180.0613 351.6119 C174.1072 351.5961 168.1531 351.5976 162.199 351.5984 C150.401 351.5994 138.603 351.5811 126.8051 351.5521 C115.3509 351.5239 103.8969 351.5097 92.4428 351.511 C91.7373 351.5111 91.0319 351.5112 90.3051 351.5113 C89.6009 351.5114 88.8967 351.5115 88.1711 351.5115 C75.8004 351.5128 63.4296 351.5026 51.0589 351.486 C45.7862 351.4789 40.5135 351.4752 35.2408 351.4742 C29.0357 351.4722 22.8306 351.46 16.6255 351.4398 C14.3434 351.434 12.0613 351.4315 9.7791 351.4327 C6.6733 351.4337 3.5677 351.4224 0.4619 351.4079 C-0.4494 351.411 -1.3608 351.4141 -2.2998 351.4173 C-3.1295 351.4108 -3.9592 351.4044 -4.814 351.3977 C-5.1726 351.397 -5.1726 351.397 -6.9873 351.3934 C-8.8761 351.1404 -8.8761 351.1404 -11.8761 349.1404 C-11.7667 347.1522 -11.7667 347.1522 -10.8761 345.1404 C-9.8036 344.4186 -8.7311 343.6967 -7.6261 342.9529 C-0.4008 338.0077 1.5575 330.7266 3.1324 322.4262 C5.0138 311.1479 4.5498 299.6245 4.528 288.2296 C4.5337 285.5322 4.5405 282.8349 4.5488 280.1376 C4.5659 273.6048 4.5668 267.0722 4.5616 260.5394 C4.5575 255.2215 4.559 249.9036 4.5643 244.5857 C4.5647 244.2054 4.5647 244.2054 4.5666 242.281 C4.5681 240.7353 4.5696 239.1896 4.5712 237.6439 C4.5849 223.1871 4.5795 208.7304 4.568 194.2736 C4.5581 181.0938 4.571 167.9142 4.5949 154.7344 C4.6194 141.1521 4.6289 127.57 4.6223 113.9877 C4.6188 106.3821 4.6209 98.7766 4.6385 91.171 C4.6534 84.6948 4.6537 78.2189 4.6365 71.7427 C4.628 68.4488 4.6278 65.1553 4.6411 61.8614 C4.6856 49.9272 4.5457 38.1988 2.4676 26.4181 C2.3293 25.589 2.1911 24.7599 2.0486 23.9057 C0.5223 16.4264 -3.3298 11.0033 -9.3136 6.3279 C-10.1592 5.6061 -11.0048 4.8842 -11.8761 4.1404 C-11.5461 3.1504 -11.2161 2.1604 -10.8761 1.1404 C-7.5106 -0.5423 -3.7017 -0.0036 0 0 Z " fill="#000000" transform="translate(927.8760833740234,234.85955810546875)"/>
<path d="M0 0 C0.8582 -0.0193 1.7163 -0.0386 2.6005 -0.0585 C6.537 -0.1163 10.4733 -0.1655 14.4102 -0.1963 C16.4829 -0.2178 18.5556 -0.2519 20.6279 -0.2988 C23.6213 -0.366 26.6127 -0.3933 29.6067 -0.4124 C30.0667 -0.4263 30.0667 -0.4263 32.3947 -0.4967 C38.2066 -0.4782 41.2658 0.5547 45.449 4.6457 C47.507 6.95 49.3696 9.3134 51.1575 11.8337 C54.3151 16.1768 57.564 20.3606 61.0325 24.4587 C64.2683 28.2979 67.3815 32.1709 70.3528 36.2166 C72.1314 38.5911 73.984 40.8983 75.845 43.2087 C78.6866 46.742 81.4534 50.3129 84.1536 53.9548 C85.903 56.286 87.6856 58.5901 89.4717 60.8933 C89.9042 61.4512 90.3368 62.009 90.7825 62.5837 C91.2144 63.1403 91.6463 63.6968 92.0913 64.2703 C95.2974 68.4289 98.2959 72.6957 101.177 77.0876 C102.845 79.2087 102.845 79.2087 105.3059 81.1658 C108.0088 83.3406 109.6875 85.4887 111.6575 88.3337 C114.2874 92.0541 116.9706 95.6737 119.845 99.2087 C122.6057 102.6153 125.2291 106.0816 127.7825 109.6462 C131.159 114.3367 134.7366 118.8064 138.4231 123.2556 C141.1318 126.5585 143.7753 129.9074 146.4075 133.2712 C150.8505 138.9466 155.3322 144.5887 159.845 150.2087 C161.8443 152.7069 163.8427 155.2059 165.8411 157.7048 C167.1862 159.3855 168.5325 161.0652 169.8801 162.7439 C181.7821 177.5813 181.7821 177.5813 184.845 182.2712 C186.4621 184.6464 188.0638 186.6434 189.97 188.7712 C193.6173 192.85 196.9152 197.1486 200.2224 201.5022 C202.3515 204.2959 204.5011 207.0301 206.845 209.6462 C210.2644 213.5209 213.1295 217.7935 216.0962 222.0161 C218.9197 226.0027 221.9128 229.6843 225.2083 233.2947 C227.0577 235.4575 228.6257 237.727 230.22 240.0837 C233.3667 244.6942 236.9228 248.7254 240.7043 252.822 C243.1792 255.5814 245.3882 258.4643 247.5676 261.4587 C248.701 263.0115 249.8941 264.5201 251.095 266.0212 C252.845 268.2087 252.845 268.2087 254.845 271.2087 C257.97 271.8962 257.97 271.8962 260.845 272.2087 C261.7795 267.5037 261.9638 262.9718 261.9028 258.1943 C261.8969 257.4044 261.891 256.6144 261.8849 255.8005 C261.8638 253.1617 261.8352 250.5232 261.8066 247.8845 C261.7899 245.9883 261.7736 244.0921 261.7577 242.1959 C261.713 237.0461 261.6616 231.8965 261.6084 226.7468 C261.5643 222.434 261.5234 218.1213 261.4823 213.8085 C261.3851 203.6137 261.2822 193.419 261.1758 183.2244 C261.0667 172.7558 260.9679 162.2872 260.8743 151.8185 C260.7933 142.8007 260.7053 133.7829 260.6119 124.7651 C260.5564 119.3934 260.5034 114.0216 260.4574 108.6498 C260.4137 103.5804 260.3611 98.5112 260.3023 93.442 C260.2823 91.6001 260.2652 89.7581 260.2516 87.9161 C259.9826 52.5264 259.9826 52.5264 255.0325 36.7712 C254.7972 35.9275 254.562 35.0839 254.3196 34.2146 C252.6699 28.6682 250.3724 24.7828 246.845 20.2087 C246.4118 19.2187 245.9787 18.2287 245.5325 17.2087 C242.747 12.2567 238.2674 8.8419 233.5911 5.6892 C233.0149 5.2007 232.4386 4.7121 231.845 4.2087 C231.845 3.2187 231.845 2.2287 231.845 1.2087 C234.7768 -0.2572 237.3761 0.0733 240.6497 0.0635 C241.349 0.0601 242.0483 0.0568 242.7689 0.0533 C245.0859 0.0438 247.4029 0.0418 249.72 0.0408 C251.3266 0.0376 252.9332 0.0342 254.5398 0.0307 C257.9091 0.0247 261.2784 0.0228 264.6477 0.0234 C268.9723 0.0235 273.2968 0.0099 277.6214 -0.0073 C280.9396 -0.0184 284.2578 -0.0205 287.576 -0.02 C289.1708 -0.0211 290.7657 -0.0256 292.3605 -0.0333 C294.5872 -0.043 296.8136 -0.0402 299.0403 -0.0342 C300.3089 -0.0356 301.5775 -0.037 302.8845 -0.0385 C305.845 0.2087 305.845 0.2087 307.845 2.2087 C307.6692 4.1892 307.6692 4.1892 306.845 6.2087 C305.1603 7.4309 303.4709 8.6476 301.7473 9.8142 C294.9744 14.7791 291.8933 21.5926 288.845 29.2087 C288.5968 29.7695 288.5968 29.7695 287.3411 32.6072 C275.978 59.7196 278.0833 92.5802 277.7029 121.3776 C277.6256 126.9367 277.5279 132.4956 277.4331 138.0544 C277.2095 151.4389 277.0227 164.8237 276.845 178.2087 C276.8178 180.231 276.7907 182.2532 276.7635 184.2755 C276.5526 200.0622 276.3441 215.8489 276.186 231.6362 C276.0229 247.539 275.736 263.43 275.273 279.3271 C274.9611 290.0691 274.7426 300.8065 274.634 311.5525 C274.6197 312.8221 274.6054 314.0916 274.5907 315.3997 C274.5335 320.4852 274.4776 325.5707 274.4436 330.6565 C274.4162 334.4763 274.3705 338.2954 274.3215 342.115 C274.3183 343.2637 274.315 344.4123 274.3117 345.5958 C274.2951 346.6572 274.2785 347.7187 274.2615 348.8123 C274.2574 349.275 274.2574 349.275 274.237 351.6166 C273.7604 354.7678 272.7703 356.6817 270.845 359.2087 C266.9548 359.3779 265.3296 358.6499 262.4543 356.033 C259.7613 353.1182 257.3382 350.0732 254.97 346.8962 C251.5561 342.3758 248.0217 338.0596 244.2317 333.8455 C242.4879 331.7873 241.2213 329.5234 239.845 327.2087 C239.0818 326.4456 238.3187 325.6825 237.5325 324.8962 C234.8829 322.2466 232.7848 319.5261 230.5793 316.5134 C228.5737 313.8482 226.4684 311.281 224.345 308.7087 C221.2497 304.9521 218.2626 301.1512 215.3723 297.2361 C213.5775 294.8537 211.7156 292.532 209.845 290.2087 C207.3193 287.0614 204.8033 283.9092 202.345 280.7087 C201.8603 280.0797 201.3756 279.4506 200.8762 278.8025 C199.845 277.2087 199.845 277.2087 199.845 275.2087 C199.2623 274.9419 198.6797 274.6751 198.0793 274.4001 C195.1326 272.8289 193.9679 270.8976 192.095 268.1462 C189.4935 264.4395 186.8478 260.9794 183.7825 257.6462 C180.3536 253.8899 177.4812 249.9371 174.6184 245.74 C171.5732 241.3935 168.2062 237.3128 164.845 233.2087 C164.0522 232.2407 163.2594 231.2726 162.4426 230.2751 C160.9058 228.3996 159.367 226.5257 157.8254 224.6541 C152.845 218.5046 152.845 218.5046 152.845 216.2087 C152.2636 215.9432 151.6822 215.6776 151.0833 215.4041 C148.1171 213.82 146.9238 211.8495 145.0325 209.0837 C142.0521 204.8427 138.9398 200.9339 135.4778 197.0837 C133.9129 195.2868 132.4983 193.4459 131.095 191.5212 C128.4216 187.8809 125.5329 184.4484 122.595 181.0212 C118.253 175.9543 114.1143 170.7691 110.1057 165.4346 C108.5136 163.3251 106.9557 161.317 105.0637 159.4666 C103.845 158.2087 103.845 158.2087 103.845 156.2087 C103.2275 155.9058 102.61 155.6029 101.9739 155.2908 C99.0519 153.8056 98.1404 151.5064 96.5247 148.7517 C94.3879 145.5167 91.9369 142.6413 89.4075 139.7087 C85.9025 135.6411 82.5289 131.5561 79.3567 127.2205 C76.007 122.7628 72.3924 118.5092 68.845 114.2087 C67.3441 112.3761 65.8441 110.5428 64.345 108.7087 C62.0749 105.9325 59.8031 103.1578 57.5247 100.3884 C56.7641 99.4629 56.0036 98.5373 55.22 97.5837 C54.85 97.1351 54.85 97.1351 52.9778 94.865 C50.3779 91.6271 47.9397 88.2826 45.5481 84.8884 C43.4099 82.7796 41.7821 82.5384 38.845 82.2087 C37.661 85.7605 37.7051 88.9697 37.7156 92.665 C37.7139 93.4293 37.7121 94.1937 37.7104 94.9811 C37.706 97.5427 37.709 100.1042 37.7122 102.6658 C37.7111 104.4892 37.7096 106.3127 37.7079 108.1362 C37.705 113.0705 37.7093 118.0048 37.716 122.9391 C37.72 126.0174 37.7225 129.0956 37.7247 132.1738 C37.7477 160.3668 37.8706 188.5586 38.1928 216.7498 C38.2196 219.1748 38.2434 221.5998 38.2663 224.0248 C39.1381 313.6329 39.1381 313.6329 62.5989 339.0173 C64.845 341.2087 64.845 341.2087 67.5676 343.3259 C69.845 345.2087 69.845 345.2087 70.72 347.8962 C70.7612 348.6594 70.8025 349.4225 70.845 350.2087 C69.1483 351.9054 67.0337 351.3284 64.7706 351.3332 C64.0448 351.3296 63.319 351.326 62.5713 351.3223 C62.1908 351.3223 62.1908 351.3223 60.2655 351.3227 C57.7385 351.322 55.2117 351.3142 52.6848 351.3064 C50.9375 351.3045 49.1901 351.3031 47.4428 351.3021 C42.8347 351.2983 38.2266 351.2885 33.6185 351.2774 C28.9199 351.2672 24.2213 351.2626 19.5227 351.2576 C10.2968 351.2468 1.0709 351.2298 -8.155 351.2087 C-8.7429 349.2954 -8.7429 349.2954 -9.155 347.2087 C-7.7488 345.822 -7.7488 345.822 -5.655 344.5212 C-0.7609 341.1303 2.5001 337.0945 5.845 332.2087 C6.2389 331.6463 6.6327 331.0839 7.0386 330.5044 C15.8245 317.3513 18.2149 300.2634 20.0403 284.8689 C20.1258 284.1596 20.2113 283.4504 20.2994 282.7196 C22.0903 267.5628 22.353 252.5181 22.1795 237.2644 C22.1412 233.4708 22.1279 229.6771 22.1106 225.8833 C22.061 216.3157 21.9684 206.7486 21.8737 197.1813 C21.8224 191.8778 21.7761 186.5743 21.7292 181.2708 C21.5673 163.1033 21.4015 144.9359 21.2017 126.7688 C21.1669 123.5829 21.1322 120.3969 21.0976 117.211 C21.0751 115.1499 21.0525 113.0888 21.0296 111.0277 C20.923 101.3371 20.8238 91.6476 20.8489 81.9563 C20.8505 81.2579 20.8522 80.5596 20.8539 79.84 C20.8628 76.7368 20.8793 73.6338 20.9073 70.5307 C21.0288 48.5388 17.3567 28.5391 2.845 11.1931 C0.9249 9.2881 -0.7724 8.0827 -3.155 6.8337 C-4.145 6.2975 -5.135 5.7612 -6.155 5.2087 C-6.155 3.8887 -6.155 2.5687 -6.155 1.2087 C-3.8771 0.0698 -2.5334 0.0532 0 0 Z " fill="#000000" transform="translate(1257.155029296875,234.791259765625)"/>
<path d="M0 0 C2.4004 0.0279 4.8009 0.0524 7.2013 0.0762 C10.8971 0.1136 14.5926 0.1614 18.2882 0.2182 C20.2689 0.2468 22.2497 0.2663 24.2305 0.2856 C25.3943 0.3065 26.5581 0.3273 27.7571 0.3488 C28.7679 0.3631 29.7787 0.3773 30.82 0.392 C33.2036 0.6726 33.2036 0.6726 35.2036 2.6726 C34.6879 10.2367 30.6177 15.5971 26.3637 21.5671 C20.0449 30.6512 14.0924 40.0232 8.4614 49.5476 C5.55 54.4663 2.4883 59.2648 -0.7339 63.9851 C-2.9334 67.248 -4.8429 70.564 -6.6714 74.0476 C-9.3427 79.0677 -12.5147 83.5019 -15.9175 88.0476 C-18.0867 91.0782 -19.8418 94.2081 -21.5894 97.4929 C-24.1739 102.1602 -27.2936 106.5099 -30.3355 110.8874 C-32.9305 114.6735 -35.2094 118.3939 -37.1714 122.5476 C-38.9631 126.2617 -40.9998 129.4445 -43.4839 132.7351 C-47.5037 138.0746 -50.8147 143.6855 -54.1436 149.4658 C-56.9548 154.3199 -59.974 158.9184 -63.2691 163.4617 C-65.3048 166.4086 -66.9948 169.4949 -68.6558 172.6648 C-69.7964 174.6726 -69.7964 174.6726 -71.3159 176.6843 C-72.7495 178.6096 -73.7311 180.4367 -74.7339 182.6101 C-75.9125 185.0385 -76.9579 186.8718 -78.6714 188.9851 C-80.7078 191.5605 -82.1316 194.0315 -83.6714 196.9226 C-85.987 201.2637 -88.4877 205.3448 -91.2574 209.407 C-100.4658 222.9626 -109.1747 237.0599 -117.1714 251.3601 C-119.9283 256.2644 -122.9139 260.866 -126.1988 265.4304 C-129.2449 269.7055 -132.0241 274.0635 -134.2964 278.7976 C-136.0608 282.1794 -138.3516 284.7508 -140.7964 287.6726 C-141.7879 289.3358 -142.777 291.0014 -143.7066 292.6999 C-145.4567 295.8677 -147.3482 298.9496 -149.2183 302.0476 C-150.2796 303.8129 -151.3315 305.5839 -152.3745 307.3601 C-152.885 308.2264 -153.3955 309.0926 -153.9214 309.9851 C-154.3777 310.765 -154.8341 311.5449 -155.3042 312.3484 C-156.7964 314.6726 -156.7964 314.6726 -158.7144 317.0281 C-161.1173 320.0802 -163.0668 323.3059 -164.9839 326.6726 C-165.339 327.2759 -165.6942 327.8792 -166.0601 328.5007 C-167.9787 331.8502 -169.4439 334.8016 -169.7964 338.6726 C-169.4664 339.3326 -169.1364 339.9926 -168.7964 340.6726 C-166.0725 340.8809 -163.4491 340.9556 -160.7227 340.9473 C-159.8752 340.9524 -159.0278 340.9575 -158.1547 340.9627 C-155.3294 340.9767 -152.5045 340.9757 -149.6792 340.9734 C-147.7083 340.9773 -145.7375 340.9816 -143.7666 340.9864 C-139.6152 340.9939 -135.4639 340.9935 -131.3125 340.9883 C-126.0445 340.9825 -120.7767 340.9992 -115.5087 341.0226 C-111.4246 341.0375 -107.3406 341.0382 -103.2565 341.0351 C-101.3185 341.0356 -99.3804 341.0407 -97.4424 341.0509 C-85.986 341.1036 -75.0818 340.415 -63.8008 338.3588 C-60.4046 337.7428 -57.0599 337.4082 -53.6089 337.2351 C-46.1111 336.7025 -38.996 334.7139 -31.7964 332.6726 C-31.4664 332.5824 -31.4664 332.5824 -29.7964 332.1257 C-20.5007 329.5436 -13.2209 325.8964 -5.7964 319.6726 C-5.1184 319.1209 -4.4403 318.5692 -3.7417 318.0007 C-0.2313 315.0779 3.05 311.98 6.2036 308.6726 C6.5072 308.3665 6.5072 308.3665 8.0434 306.8171 C13.0379 301.5542 16.4042 296.0646 19.6606 289.5906 C21.2036 286.6726 21.2036 286.6726 22.7778 284.6492 C24.567 282.1688 25.3046 279.778 26.2036 276.8601 C27.2929 273.4382 28.3737 270.0821 29.8286 266.7976 C31.1487 263.7973 32.2135 260.7952 33.2036 257.6726 C35.1578 257.7991 35.1578 257.7991 37.2036 258.6726 C37.8033 261.2218 37.8033 261.2218 37.9365 264.6489 C37.9917 265.9248 38.0469 267.2008 38.1038 268.5153 C38.1398 269.901 38.173 271.2868 38.2036 272.6726 C38.2217 273.3455 38.2399 274.0184 38.2586 274.7117 C38.3913 279.8247 38.4446 284.937 38.477 290.0515 C38.4823 290.8488 38.4877 291.6462 38.4932 292.4677 C38.5196 296.6685 38.5391 300.8694 38.5537 305.0703 C38.5671 308.5299 38.5952 311.9889 38.6357 315.4482 C38.685 319.6595 38.7098 323.8703 38.7169 328.0819 C38.7236 329.6771 38.7388 331.2723 38.7628 332.8674 C38.7944 335.0903 38.7945 337.3111 38.7871 339.5342 C38.7952 340.7954 38.8033 342.0567 38.8116 343.3562 C38.0037 347.7629 36.7656 348.9692 33.2036 351.6726 C29.9176 352.4187 26.6956 352.3899 23.3365 352.3737 C22.8433 352.3811 22.8433 352.3811 20.3474 352.4183 C17.0817 352.4608 13.8169 352.4679 10.551 352.4746 C8.2441 352.4969 5.9372 352.5211 3.6303 352.5473 C-2.3505 352.6085 -8.331 352.639 -14.3121 352.6593 C-17.62 352.6719 -20.9277 352.6914 -24.2355 352.7142 C-37.8367 352.8079 -51.4374 352.8382 -65.039 352.8399 C-68.4211 352.8406 -71.8033 352.8427 -75.1854 352.8454 C-87.0298 352.8545 -98.8742 352.8587 -110.7185 352.8579 C-121.7082 352.8573 -132.6979 352.868 -143.6875 352.8837 C-153.2138 352.8967 -162.7401 352.9021 -172.2664 352.9015 C-177.9197 352.9012 -183.573 352.904 -189.2264 352.9146 C-194.4973 352.9243 -199.7681 352.9244 -205.039 352.9171 C-206.9709 352.9161 -208.9027 352.9184 -210.8345 352.9245 C-213.4645 352.9322 -216.0942 352.9276 -218.7241 352.9198 C-219.4909 352.925 -220.2577 352.9301 -221.0477 352.9354 C-227.8461 352.8911 -227.8461 352.8911 -230.7964 350.6726 C-231.9111 345.0661 -229.2843 341.3606 -226.4214 336.7976 C-225.9731 336.0609 -225.5249 335.3242 -225.063 334.5652 C-223.6543 332.259 -222.2268 329.9654 -220.7964 327.6726 C-219.9027 326.2224 -219.0094 324.7719 -218.1167 323.321 C-214.7963 317.9516 -211.4405 312.6164 -207.9253 307.3718 C-204.5268 302.2962 -201.2525 297.145 -197.9839 291.9851 C-193.9428 285.6169 -189.8925 279.2556 -185.7964 272.9226 C-183.348 269.1279 -180.9647 265.3128 -178.6714 261.4226 C-176.1383 257.1422 -173.3371 253.1028 -170.4605 249.0476 C-167.2383 244.4488 -164.2953 239.7976 -161.8589 234.7351 C-158.6916 228.2217 -154.3905 222.3625 -150.0699 216.571 C-148.542 214.2933 -147.2066 211.9201 -145.8584 209.533 C-144.5318 207.209 -143.1434 204.9238 -141.7527 202.6377 C-137.4348 195.5393 -133.3384 188.344 -129.4229 181.0151 C-127.003 176.5639 -124.3082 172.5639 -121.2132 168.5547 C-119.2112 165.8952 -117.5065 163.0888 -115.7964 160.2351 C-113.4384 156.3397 -111.0463 152.4992 -108.4839 148.7351 C-106.2902 145.4889 -104.4894 142.2124 -102.7964 138.6726 C-98.5634 130.9625 -93.7763 123.5866 -88.8589 116.2976 C-86.4473 112.7089 -84.173 109.0513 -81.9214 105.3601 C-79.2703 101.0141 -76.5329 96.7579 -73.6714 92.5476 C-70.5769 87.9572 -67.8825 83.2738 -65.2886 78.3874 C-62.6942 73.6673 -59.7309 69.1862 -56.7964 64.6726 C-50.0905 54.305 -50.0905 54.305 -47.4839 49.4851 C-44.7205 44.3975 -41.6197 39.5302 -38.5352 34.6338 C-35.6342 30.0266 -32.802 25.3867 -30.0503 20.6882 C-28.7964 18.6726 -28.7964 18.6726 -27.0894 16.5749 C-26.6627 15.9472 -26.236 15.3194 -25.7964 14.6726 C-26.4641 12.28 -27.0174 10.4516 -28.7964 8.6726 C-31.7247 8.5339 -34.6163 8.4828 -37.5464 8.4851 C-38.039 8.4851 -38.039 8.4851 -40.5318 8.4853 C-53.5205 8.5759 -66.4927 9.26 -79.4636 9.9016 C-88.4559 10.3405 -97.4293 10.7363 -106.4331 10.782 C-135.7809 10.976 -165.9254 14.1346 -187.8941 35.7351 C-189.0858 36.9488 -190.264 38.1761 -191.4214 39.4226 C-192.7964 40.6726 -192.7964 40.6726 -194.7964 40.6726 C-195.5056 42.3216 -196.1643 43.9925 -196.7964 45.6726 C-197.7025 47.2535 -198.6416 48.8159 -199.6089 50.3601 C-206.0339 60.9489 -211.4435 72.2368 -213.7964 84.4851 C-213.9614 85.011 -213.9614 85.011 -214.7964 87.6726 C-217.4214 88.6726 -217.4214 88.6726 -219.7964 88.6726 C-222.1185 84.1125 -222.0337 79.8016 -221.9409 74.8093 C-221.9322 73.905 -221.9235 73.0007 -221.9145 72.069 C-221.8941 70.0472 -221.8691 68.0253 -221.8404 66.0036 C-221.7936 62.4579 -221.7668 58.9124 -221.7432 55.3665 C-221.7011 49.4389 -221.6395 43.5117 -221.5607 37.5845 C-221.5154 34.1579 -221.4761 30.7315 -221.45 27.3047 C-221.4191 23.2877 -221.3645 19.2713 -221.3081 15.2546 C-221.3017 14.0184 -221.2954 12.7822 -221.2888 11.5085 C-221.269 10.3752 -221.2492 9.2419 -221.2288 8.0742 C-221.2177 7.0761 -221.2066 6.078 -221.1951 5.0496 C-221.0636 4.2652 -220.932 3.4808 -220.7964 2.6726 C-217.1716 0.2561 -215.4864 0.4117 -211.1693 0.3874 C-210.4914 0.3809 -209.8134 0.3744 -209.115 0.3677 C-206.8348 0.3483 -204.5547 0.3431 -202.2744 0.3379 C-200.6388 0.3269 -199.0031 0.3152 -197.3674 0.3026 C-192.8959 0.2708 -188.4244 0.2517 -183.9529 0.235 C-179.201 0.2155 -174.4492 0.1857 -169.6974 0.1575 C-161.6418 0.1113 -153.5861 0.073 -145.5303 0.0395 C-137.4163 0.0058 -129.3024 -0.0355 -121.1885 -0.0855 C-80.7909 -0.3336 -40.3964 -0.4868 0 0 Z " fill="#000000" transform="translate(1876.7964129447937,234.3273961544037)"/>
</svg>
